<svg t="1700921327460" class="icon" viewBox="0 0 1024 1024" version="1.1" xmlns="http://www.w3.org/2000/svg" p-id="4054" data-darkreader-inline-fill="" width="200" height="200"><path d="M978.184535 722.656222c-56.344532 124.543493-157.803085 219.682884-285.674137 267.884495a511.580197 511.580197 0 0 1-180.728047 33.179603c-71.766488 0-143.341002-15.293973-210.676078-45.769934a513.036004 513.036004 0 0 1-114.176868-71.30255c2.783631 25.660599 3.583525 52.329065-0.191974 75.749961a32.091747 32.091747 0 0 1-63.351604-10.238643c7.822963-48.489573-11.710448-127.695076-19.901362-154.139571a31.835781 31.835781 0 0 1 0.191974-18.893496c0.415945-1.503801 0.991869-2.975606 1.647782-4.415415 0.22397-0.463939 0.351953-0.959873 0.591922-1.407813 2.063726-4.095457 4.943345-7.838961 8.798833-10.862561a32.027755 32.027755 0 0 1 33.179603-3.743504c31.323848 6.703112 86.628519 14.63806 144.796809 4.351424a32.075749 32.075749 0 1 1 11.198516 63.191625 408.105911 408.105911 0 0 1-82.453072 5.679247 448.10061 448.10061 0 0 0 106.113936 67.575044c108.881569 49.257472 230.465455 53.176952 342.32263 11.006541 111.841177-42.170411 200.565418-125.359385 249.838887-234.27295 49.257472-108.881569 53.19295-230.433459 11.038537-342.306632a32.091747 32.091747 0 1 1 60.040043-22.621002c48.185614 127.903048 43.706207 266.892627-12.60633 391.356131z m-132.766403-359.424363a21.389165 21.389165 0 0 1 27.548349 12.478346c36.331185 96.451217 32.955632 201.237329-9.486743 295.080891-63.52758 140.381394-204.372913 226.721951-352.545275 226.721951-35.403308 0-71.22256-4.927347-106.497885-15.213984a21.373167 21.373167 0 1 1 11.966414-41.066557c162.714434 47.401718 338.115187-33.435569 408.089913-188.087071 37.770994-83.428943 40.7466-176.600594 8.446881-262.34923a21.389165 21.389165 0 0 1 12.478346-27.564346zM178.658502 660.392474a21.421161 21.421161 0 0 1-27.564347-12.478346c-36.395176-96.403223-33.035622-201.221331 9.438749-295.112887C239.050497 179.288238 429.217293 89.540133 612.696976 139.35753a21.389165 21.389165 0 0 1-11.214514 41.27453c-163.05039-44.266133-332.179974 35.531291-401.978723 189.814842a340.73884 340.73884 0 0 0-8.398887 262.381225 21.405163 21.405163 0 0 1-12.44635 27.564347z m739.086044-442.725323c-0.143981 0.735902-0.271964 1.455807-0.463939 2.19171a30.811916 30.811916 0 0 1-2.319692 6.271169c-0.111985 0.255966-0.175977 0.495934-0.30396 0.719904-1.167845 2.239703-2.687644 4.30343-4.399417 6.239173-0.159979 0.175977-0.255966 0.383949-0.415945 0.575924-0.495934 0.52793-1.087856 0.911879-1.615786 1.423811-0.623917 0.575924-1.167845 1.231837-1.839756 1.775765-0.255966 0.22397-0.575924 0.367951-0.847887 0.559926-0.815892 0.607919-1.663779 1.119852-2.511667 1.631783-1.05586 0.639915-2.095722 1.27983-3.199576 1.791763-0.767898 0.351953-1.567792 0.623917-2.367687 0.943875a45.226006 45.226006 0 0 1-3.711508 1.167845c-0.815892 0.191975-1.615786 0.30396-2.447675 0.431943-1.27983 0.207972-2.543663 0.367951-3.855489 0.399947-0.383949 0.015998-0.719905 0.111985-1.103854 0.111985-0.431943 0-0.863886-0.127983-1.311826-0.143981a29.516088 29.516088 0 0 1-4.575394-0.543928c-0.447941-0.063992-0.911879-0.031996-1.391815-0.143981-29.72406-6.911084-88.916215-16.861765-151.323944-5.80723a32.091747 32.091747 0 0 1-11.182518-63.191625 407.465996 407.465996 0 0 1 82.38908-5.711243 446.436831 446.436831 0 0 0-102.514413-64.311476C471.659668 2.383684 205.998878 102.530411 104.300357 327.332617 55.026887 436.262179 51.107407 557.846065 93.293815 669.70324a32.075749 32.075749 0 1 1-60.024044 22.652998c-48.233607-127.88705-43.770199-266.924623 12.558335-391.468117C162.132692 43.850188 465.852438-70.678633 722.906369 45.593957A510.412352 510.412352 0 0 1 833.563703 113.77692c-2.799629-25.692595-3.615521-52.409054 0.191974-75.845947a32.075749 32.075749 0 1 1 63.335606 10.254641c-7.886955 48.649552 11.69445 127.727072 19.869367 154.107575l0.063991 0.30396c0.735902 2.463673 1.135849 4.943345 1.263833 7.471009 0.047994 0.639915-0.015998 1.247835-0.015998 1.88775-0.015998 1.919746-0.175977 3.823493-0.52793 5.711243z" fill="#FF7878" p-id="4055" data-darkreader-inline-fill="" style="--darkreader-inline-fill: #601510;"></path></svg>