<svg t="1709956430851" class="icon" viewBox="0 0 1024 1024" version="1.1" xmlns="http://www.w3.org/2000/svg" p-id="4253" width="200" height="200"><path d="M511.2 312.7c-110.4 0-200.5 89.9-200.5 200.8 0 109.9 90.2 200.3 200.5 200.3 110.1 0 200.5-90.4 200.5-200.3 0-111-90.3-200.8-200.5-200.8z m0 360.3c-88 0-159.5-71.8-159.5-159.5 0-88.2 71.6-160.1 159.5-160.1 88.2 0 160 71.8 160 160.1 0.1 87.6-71.8 159.5-160 159.5z m438-175c-81.7-165.6-253.1-272.1-438-272.1S155.5 332.4 73.5 498c-4.3 9.1-4.8 20.2 0 30.1 82 165.6 252.8 272.1 437.7 272.1s356.2-106.5 438-272.1c4.5-8.9 4.5-20 0-30.1z m-438 234.3c-153.3 0-296-84.4-369.3-218.8 73.3-134.7 216-219.3 369.3-219.3s296 84.6 369.5 219.3c-73.5 134.4-216.2 218.8-369.5 218.8z m76.7-250.9c-13-30.6-43.6-51.1-76.7-51.1-11.3 0-20.2 9.4-20.2 20.5s8.9 20.3 20.2 20.3c16.9 0 32.8 10.1 39 26l0.2 0.5c1.7 4.8 3.1 10.1 3.1 15.9 0 16.4-10.6 32.3-26.5 38.6l-0.5 0.5c-9.9 3.8-21.7 3.6-31.3-0.2v-0.4c-15.9-6.5-26.3-22.2-26.3-38.6 0-11.6-8.9-20.7-20.5-20.7-11.1 0-20 9.2-20 20.7 0 21.4 8.9 42.9 24.1 58.3 7.5 7.5 16.9 13.7 26.7 17.8 20 8.2 42.4 8.4 62.7 0.5l1-0.5c10.1-4.1 19.3-10.3 27-17.8 15.2-15.4 24.1-36.9 24.1-58.3 0-10.6-2.2-21.2-5.8-30.9l-0.3-1.1z" fill="#231815" p-id="4254"></path></svg>